<?xml version="1.0" standalone="no"?><svg xmlns="http://www.w3.org/2000/svg" viewBox="0 0 1440 320"><path fill="#0099ff" fill-opacity="1" d="M0,128L26.7,122.7C53.3,117,107,107,160,90.7C213.3,75,267,53,320,80C373.3,107,427,181,480,186.7C533.3,192,587,128,640,117.3C693.3,107,747,149,800,186.7C853.3,224,907,256,960,272C1013.3,288,1067,288,1120,282.7C1173.3,277,1227,267,1280,229.3C1333.3,192,1387,128,1413,96L1440,64L1440,320L1413.3,320C1386.7,320,1333,320,1280,320C1226.7,320,1173,320,1120,320C1066.7,320,1013,320,960,320C906.7,320,853,320,800,320C746.7,320,693,320,640,320C586.7,320,533,320,480,320C426.7,320,373,320,320,320C266.7,320,213,320,160,320C106.7,320,53,320,27,320L0,320Z"></path></svg>