<?xml version="1.0" standalone="no"?><svg xmlns="http://www.w3.org/2000/svg" viewBox="0 0 1440 320"><path fill="#0099ff" fill-opacity="1" d="M0,32L30,80C60,128,120,224,180,229.3C240,235,300,149,360,122.7C420,96,480,128,540,122.7C600,117,660,75,720,80C780,85,840,139,900,176C960,213,1020,235,1080,218.7C1140,203,1200,149,1260,112C1320,75,1380,53,1410,42.7L1440,32L1440,320L1410,320C1380,320,1320,320,1260,320C1200,320,1140,320,1080,320C1020,320,960,320,900,320C840,320,780,320,720,320C660,320,600,320,540,320C480,320,420,320,360,320C300,320,240,320,180,320C120,320,60,320,30,320L0,320Z"></path></svg>